<svg xmlns="http://www.w3.org/2000/svg" viewBox="0 0 24 24" fill="#25D366">
  <path d="M20.52 3.48A11.82 11.82 0 0 0 12.07 0C5.56 0 .25 5.31.25 11.82c0 2.08.54 4.11 1.58 5.9L0 24l6.46-1.69a11.77 11.77 0 0 0 5.6 1.43h.01c6.51 0 11.82-5.31 11.82-11.82 0-3.16-1.23-6.13-3.47-8.44Zm-8.45 18.26h-.01a9.83 9.83 0 0 1-5-1.37l-.36-.21-3.84 1.01 1.02-3.74-.24-.38a9.84 9.84 0 0 1-1.51-5.23c0-5.42 4.41-9.83 9.84-9.83 2.63 0 5.1 1.02 6.96 2.88a9.78 9.78 0 0 1 2.88 6.96c0 5.42-4.42 9.83-9.84 9.83Zm5.4-7.37c-.29-.14-1.72-.85-1.99-.95-.27-.1-.47-.14-.66.14-.19.29-.76.95-.93 1.15-.17.19-.34.22-.63.07-.29-.14-1.22-.45-2.33-1.44a8.67 8.67 0 0 1-1.62-2c-.17-.29-.02-.44.13-.58.13-.13.29-.34.43-.51.14-.17.19-.29.29-.48.1-.19.05-.36-.02-.51-.07-.14-.66-1.6-.91-2.2-.24-.58-.49-.5-.66-.5-.17-.01-.36-.01-.56-.01s-.51.07-.78.36c-.27.29-1.02 1-.99 2.44.03 1.44 1.03 2.83 1.17 3.02.14.19 2.03 3.1 4.91 4.35.69.3 1.23.48 1.65.62.69.22 1.32.19 1.82.12.56-.08 1.72-.7 1.96-1.37.24-.67.24-1.25.17-1.37-.07-.12-.27-.19-.56-.34Z"/>
</svg>
